<?xml version="1.0" encoding="UTF-8"?>
<svg xmlns="http://www.w3.org/2000/svg" xmlns:xlink="http://www.w3.org/1999/xlink" width="32pt" height="32pt" viewBox="0 0 32 32" version="1.1">
<defs>
<filter id="alpha" filterUnits="objectBoundingBox" x="0%" y="0%" width="100%" height="100%">
  <feColorMatrix type="matrix" in="SourceGraphic" values="0 0 0 0 1 0 0 0 0 1 0 0 0 0 1 0 0 0 1 0"/>
</filter>
<mask id="mask0">
  <g filter="url(#alpha)">
<rect x="0" y="0" width="32" height="32" style="fill:rgb(0%,0%,0%);fill-opacity:0.301961;stroke:none;"/>
  </g>
</mask>
<clipPath id="clip1">
  <rect width="32" height="32"/>
</clipPath>
<g id="surface6" clip-path="url(#clip1)">
<path style=" stroke:none;fill-rule:evenodd;fill:rgb(0.392157%,0.784314%,0.784314%);fill-opacity:1;" d="M 24.800781 20.109375 C 16.539062 28.316406 0.984375 26.179688 0.984375 26.179688 C 0.984375 26.179688 0.871094 25.363281 0.796875 24.019531 C 0.578125 28 0.984375 30.921875 0.984375 30.921875 C 0.984375 30.921875 16.539062 33.058594 24.800781 24.851562 C 31.175781 18.523438 31.351562 7.894531 31.101562 3.359375 C 30.816406 8.527344 29.472656 15.472656 24.800781 20.109375 "/>
</g>
</defs>
<g id="surface1">
<path style=" stroke:none;fill-rule:evenodd;fill:rgb(82.352941%,56.078431%,32.156863%);fill-opacity:1;" d="M 30.914062 1.203125 C 30.914062 1.203125 15.359375 -0.9375 7.09375 7.269531 C -1.171875 15.476562 0.984375 30.921875 0.984375 30.921875 C 0.984375 30.921875 16.539062 33.058594 24.800781 24.851562 C 33.066406 16.648438 30.914062 1.203125 30.914062 1.203125 "/>
<path style=" stroke:none;fill-rule:evenodd;fill:rgb(44.705882%,33.333333%,24.705882%);fill-opacity:1;" d="M 22.054688 1.375 C 26.886719 0.917969 30.679688 1.4375 30.679688 1.4375 C 30.679688 1.4375 31.199219 5.199219 30.738281 9.996094 Z M 22.054688 1.375 "/>
<path style=" stroke:none;fill-rule:evenodd;fill:rgb(44.705882%,33.333333%,24.705882%);fill-opacity:1;" d="M 0.921875 22.359375 C 0.460938 27.15625 0.984375 30.921875 0.984375 30.921875 C 0.984375 30.921875 4.773438 31.441406 9.605469 30.980469 Z M 0.921875 22.359375 "/>
<use xlink:href="#surface6" mask="url(#mask0)"/>
<path style=" stroke:none;fill-rule:evenodd;fill:rgb(18.039216%,18.039216%,18.823529%);fill-opacity:1;" d="M 1.632812 30.277344 C 4.433594 30.550781 17.242188 31.355469 24.296875 24.351562 C 31.347656 17.347656 30.539062 4.628906 30.265625 1.847656 C 27.460938 1.574219 14.65625 0.769531 7.601562 7.773438 C 0.546875 14.777344 1.359375 27.492188 1.632812 30.277344 M 5.636719 31.898438 C 2.953125 31.898438 1.101562 31.65625 0.886719 31.625 C 0.566406 31.582031 0.316406 31.335938 0.273438 31.019531 C 0.183594 30.375 -1.832031 15.128906 6.589844 6.765625 C 15.007812 -1.59375 30.359375 0.40625 31.011719 0.496094 C 31.328125 0.539062 31.578125 0.789062 31.621094 1.105469 C 31.710938 1.75 33.730469 16.996094 25.308594 25.355469 C 19.695312 30.929688 11 31.898438 5.636719 31.898438 "/>
<path style=" stroke:none;fill-rule:evenodd;fill:rgb(18.039216%,18.039216%,18.823529%);fill-opacity:1;" d="M 1.632812 30.277344 C 2.664062 30.378906 5.054688 30.558594 7.996094 30.390625 L 1.519531 23.957031 C 1.351562 26.878906 1.527344 29.253906 1.632812 30.277344 M 5.515625 31.882812 C 2.8125 31.882812 0.996094 31.640625 0.886719 31.625 C 0.566406 31.582031 0.316406 31.335938 0.273438 31.019531 C 0.253906 30.863281 -0.253906 27.117188 0.210938 22.292969 C 0.238281 22.019531 0.421875 21.785156 0.679688 21.691406 C 0.941406 21.597656 1.234375 21.660156 1.429688 21.855469 L 10.113281 30.480469 C 10.308594 30.671875 10.375 30.960938 10.28125 31.222656 C 10.1875 31.480469 9.949219 31.664062 9.675781 31.691406 C 8.15625 31.835938 6.746094 31.882812 5.515625 31.882812 "/>
<path style=" stroke:none;fill-rule:evenodd;fill:rgb(18.039216%,18.039216%,18.823529%);fill-opacity:1;" d="M 23.664062 1.96875 L 30.144531 8.398438 C 30.3125 5.472656 30.132812 3.101562 30.03125 2.078125 C 28.996094 1.976562 26.609375 1.800781 23.664062 1.96875 M 30.738281 10.707031 C 30.550781 10.707031 30.367188 10.636719 30.230469 10.5 L 21.550781 1.878906 C 21.351562 1.683594 21.289062 1.394531 21.382812 1.136719 C 21.476562 0.875 21.710938 0.695312 21.988281 0.667969 C 26.847656 0.207031 30.617188 0.707031 30.777344 0.730469 C 31.09375 0.773438 31.34375 1.023438 31.386719 1.339844 C 31.410156 1.496094 31.917969 5.242188 31.453125 10.066406 C 31.425781 10.339844 31.242188 10.574219 30.980469 10.667969 C 30.902344 10.695312 30.820312 10.707031 30.738281 10.707031 "/>
<path style=" stroke:none;fill-rule:evenodd;fill:rgb(44.705882%,33.333333%,24.705882%);fill-opacity:1;" d="M 19.386719 12.222656 L 12.085938 19.476562 "/>
<path style=" stroke:none;fill-rule:evenodd;fill:rgb(18.039216%,18.039216%,18.823529%);fill-opacity:1;" d="M 12.085938 20.1875 C 11.902344 20.1875 11.71875 20.117188 11.578125 19.980469 C 11.296875 19.699219 11.296875 19.25 11.578125 18.972656 L 18.878906 11.722656 C 19.160156 11.441406 19.613281 11.441406 19.894531 11.722656 C 20.171875 12 20.171875 12.449219 19.894531 12.726562 L 12.589844 19.980469 C 12.449219 20.117188 12.269531 20.1875 12.085938 20.1875 "/>
<path style=" stroke:none;fill-rule:evenodd;fill:rgb(44.705882%,33.333333%,24.705882%);fill-opacity:1;" d="M 14.457031 14.578125 L 17.015625 17.121094 "/>
<path style=" stroke:none;fill-rule:evenodd;fill:rgb(18.039216%,18.039216%,18.823529%);fill-opacity:1;" d="M 17.015625 17.832031 C 16.832031 17.832031 16.648438 17.761719 16.507812 17.625 L 13.949219 15.082031 C 13.667969 14.804688 13.667969 14.355469 13.949219 14.074219 C 14.226562 13.796875 14.683594 13.796875 14.960938 14.074219 L 17.523438 16.617188 C 17.800781 16.894531 17.800781 17.347656 17.523438 17.625 C 17.382812 17.761719 17.199219 17.832031 17.015625 17.832031 "/>
<path style=" stroke:none;fill-rule:evenodd;fill:rgb(44.705882%,33.333333%,24.705882%);fill-opacity:1;" d="M 16.992188 12.0625 L 19.550781 14.601562 "/>
<path style=" stroke:none;fill-rule:evenodd;fill:rgb(18.039216%,18.039216%,18.823529%);fill-opacity:1;" d="M 19.550781 15.316406 C 19.367188 15.316406 19.183594 15.246094 19.042969 15.105469 L 16.484375 12.5625 C 16.203125 12.285156 16.203125 11.835938 16.484375 11.558594 C 16.765625 11.28125 17.21875 11.28125 17.496094 11.558594 L 20.058594 14.101562 C 20.335938 14.378906 20.335938 14.828125 20.058594 15.105469 C 19.917969 15.246094 19.734375 15.316406 19.550781 15.316406 "/>
<path style=" stroke:none;fill-rule:evenodd;fill:rgb(44.705882%,33.333333%,24.705882%);fill-opacity:1;" d="M 11.921875 17.097656 L 14.480469 19.636719 "/>
<path style=" stroke:none;fill-rule:evenodd;fill:rgb(18.039216%,18.039216%,18.823529%);fill-opacity:1;" d="M 14.480469 20.347656 C 14.296875 20.347656 14.113281 20.28125 13.972656 20.140625 L 11.414062 17.597656 C 11.132812 17.320312 11.132812 16.871094 11.414062 16.59375 C 11.695312 16.316406 12.148438 16.316406 12.425781 16.59375 L 14.988281 19.136719 C 15.265625 19.414062 15.265625 19.863281 14.988281 20.140625 C 14.847656 20.28125 14.664062 20.347656 14.480469 20.347656 "/>
</g>
</svg>
